<mxfile host="app.diagrams.net" modified="2022-11-30T06:10:16.307Z" agent="5.0 (Macintosh; Intel Mac OS X 10_15_7) AppleWebKit/537.36 (KHTML, like Gecko) Chrome/107.0.0.0 Safari/537.36" version="20.6.0" etag="1gAVPo8Jl8vEkNTdm-Nj" type="github">
  <diagram id="3eHL6gBv47sc7yMh3iQE" name="第 1 页">
    <mxGraphModel dx="1096" dy="666" grid="1" gridSize="10" guides="1" tooltips="1" connect="1" arrows="1" fold="1" page="1" pageScale="1" pageWidth="827" pageHeight="1169" math="0" shadow="0">
      <root>
        <mxCell id="0" />
        <mxCell id="1" parent="0" />
        <mxCell id="dTetyQT3u0sxiPz0bWXz-1" value="...." style="rounded=0;whiteSpace=wrap;html=1;fontSize=16;" vertex="1" parent="1">
          <mxGeometry x="150" y="240" width="120" height="60" as="geometry" />
        </mxCell>
        <mxCell id="dTetyQT3u0sxiPz0bWXz-2" value="部分数据" style="rounded=0;whiteSpace=wrap;html=1;fillColor=#dae8fc;strokeColor=#6c8ebf;fontSize=16;" vertex="1" parent="1">
          <mxGeometry x="270" y="240" width="120" height="60" as="geometry" />
        </mxCell>
        <mxCell id="dTetyQT3u0sxiPz0bWXz-5" style="edgeStyle=orthogonalEdgeStyle;rounded=0;orthogonalLoop=1;jettySize=auto;html=1;entryX=0;entryY=0.5;entryDx=0;entryDy=0;fontSize=16;" edge="1" parent="1" source="dTetyQT3u0sxiPz0bWXz-3" target="dTetyQT3u0sxiPz0bWXz-4">
          <mxGeometry relative="1" as="geometry" />
        </mxCell>
        <mxCell id="dTetyQT3u0sxiPz0bWXz-3" value="溢出页的地址" style="rounded=0;whiteSpace=wrap;html=1;fillColor=#ffe6cc;strokeColor=#d79b00;fontSize=16;" vertex="1" parent="1">
          <mxGeometry x="390" y="240" width="120" height="60" as="geometry" />
        </mxCell>
        <mxCell id="dTetyQT3u0sxiPz0bWXz-4" value="存放记录剩余数据的溢出页" style="rounded=0;whiteSpace=wrap;html=1;fillColor=#ffe6cc;strokeColor=#d79b00;fontSize=16;" vertex="1" parent="1">
          <mxGeometry x="500" y="370" width="160" height="60" as="geometry" />
        </mxCell>
        <mxCell id="dTetyQT3u0sxiPz0bWXz-6" value="...." style="rounded=0;whiteSpace=wrap;html=1;fontSize=16;" vertex="1" parent="1">
          <mxGeometry x="510" y="240" width="120" height="60" as="geometry" />
        </mxCell>
        <mxCell id="dTetyQT3u0sxiPz0bWXz-7" value="行格式：" style="text;html=1;align=center;verticalAlign=middle;resizable=0;points=[];autosize=1;strokeColor=none;fillColor=none;fontSize=16;" vertex="1" parent="1">
          <mxGeometry x="55" y="255" width="90" height="30" as="geometry" />
        </mxCell>
      </root>
    </mxGraphModel>
  </diagram>
</mxfile>
